<svg xmlns="http://www.w3.org/2000/svg" width="20" height="21" viewBox="0 0 20 21" fill="none">
<path d="M18.2355 6.05662C17.8514 4.40023 16.3828 3.16699 14.6297 3.16699H5.37045C3.61735 3.16699 2.14874 4.40023 1.76469 6.05662M18.2355 6.05662C18.2995 6.33289 18.3334 6.62094 18.3334 6.91699V14.417C18.3334 14.8825 18.2496 15.3283 18.0965 15.7396M18.2355 6.05662L12.7779 10.3545M1.76469 6.05662C1.70063 6.33289 1.66675 6.62094 1.66675 6.91699V14.417C1.66675 14.8825 1.75054 15.3283 1.90368 15.7396M1.76469 6.05662L7.2223 10.3545M7.2223 10.3545L8.86315 11.6467C9.53188 12.1733 10.4683 12.1733 11.137 11.6467L12.7779 10.3545M7.2223 10.3545L1.90368 15.7396M1.90368 15.7396C2.43181 17.158 3.78476 18.167 5.37045 18.167H14.6297C16.2154 18.167 17.5684 17.158 18.0965 15.7396M12.7779 10.3545L18.0965 15.7396" stroke="#525C6C" stroke-width="2" stroke-linecap="round" stroke-linejoin="round"/>
</svg>