<svg xmlns="http://www.w3.org/2000/svg" width="20" height="20" viewBox="0 0 20 20" fill="none">
<mask id="path-1-inside-1_2269_2119" fill="white">
<path fill-rule="evenodd" clip-rule="evenodd" d="M1.66667 3.11578C1.66667 3.11578 1.66667 2.51547 2.09115 2.09099C2.09115 2.09099 2.51564 1.6665 3.11595 1.6665H16.8841C16.8841 1.6665 17.4844 1.6665 17.9089 2.09099C17.9089 2.09099 18.3333 2.51547 18.3333 3.11578V16.8839C18.3333 16.8839 18.3333 17.4842 17.9089 17.9087C17.9089 17.9087 17.4844 18.3332 16.8841 18.3332H3.11595C3.11595 18.3332 2.51564 18.3332 2.09115 17.9087C2.09115 17.9087 1.66667 17.4842 1.66667 16.8839V3.11578ZM3.11595 3.11578V16.8839H16.8841V3.11578H3.11595Z"/>
<path d="M9.27537 2.39114V17.6085C9.27537 18.0087 9.5998 18.3332 10 18.3332C10.4002 18.3332 10.7246 18.0087 10.7246 17.6085V2.39114C10.7246 1.99094 10.4002 1.6665 10 1.6665C9.5998 1.6665 9.27537 1.99094 9.27537 2.39114Z"/>
<path d="M17.6087 9.2752H2.39131C1.9911 9.2752 1.66667 9.59963 1.66667 9.99984C1.66667 10.4 1.9911 10.7245 2.39131 10.7245H17.6087C18.0089 10.7245 18.3333 10.4 18.3333 9.99984C18.3333 9.59963 18.0089 9.2752 17.6087 9.2752Z"/>
</mask>
<path d="M2.09115 2.09099L3.50537 3.5052L3.50537 3.5052L2.09115 2.09099ZM17.9089 2.09099L16.4946 3.5052L16.4946 3.5052L17.9089 2.09099ZM18.3333 16.8839L20.3333 16.8839V16.8839H18.3333ZM17.9089 17.9087L16.4946 16.4945L16.4946 16.4945L17.9089 17.9087ZM3.11595 18.3332L3.11595 20.3332H3.11595V18.3332ZM2.09115 17.9087L3.50537 16.4945L3.50537 16.4945L2.09115 17.9087ZM3.11595 3.11578V1.11578C2.01138 1.11578 1.11595 2.01121 1.11595 3.11578H3.11595ZM3.11595 16.8839H1.11595C1.11595 17.9885 2.01138 18.8839 3.11595 18.8839V16.8839ZM16.8841 16.8839V18.8839C17.9886 18.8839 18.8841 17.9885 18.8841 16.8839H16.8841ZM16.8841 3.11578H18.8841C18.8841 2.01121 17.9886 1.11578 16.8841 1.11578V3.11578ZM1.66667 3.11578C3.66667 3.11578 3.66667 3.11647 3.66667 3.11716C3.66667 3.11738 3.66667 3.11807 3.66667 3.11852C3.66667 3.11943 3.66667 3.12033 3.66666 3.12122C3.66666 3.12301 3.66665 3.12477 3.66664 3.1265C3.66662 3.12997 3.66659 3.13333 3.66656 3.1366C3.66648 3.14312 3.66638 3.14924 3.66625 3.15498C3.66598 3.16644 3.66561 3.17647 3.66519 3.1852C3.66436 3.20252 3.66329 3.21547 3.66228 3.22504C3.66045 3.2424 3.65816 3.25518 3.65481 3.26801C3.65216 3.27816 3.62515 3.38542 3.50537 3.5052L0.676941 0.676773C0.132676 1.22104 -0.106573 1.84069 -0.215344 2.25711C-0.271756 2.47308 -0.300577 2.66247 -0.315673 2.80566C-0.323315 2.87814 -0.327701 2.94131 -0.330192 2.99311C-0.33144 3.01908 -0.332223 3.04243 -0.332695 3.06289C-0.33293 3.07313 -0.333089 3.08268 -0.333188 3.09149C-0.333238 3.0959 -0.333273 3.10013 -0.333295 3.10418C-0.333307 3.10621 -0.333315 3.10818 -0.33332 3.11012C-0.333323 3.11108 -0.333325 3.11204 -0.333326 3.11298C-0.333327 3.11345 -0.333328 3.11415 -0.333328 3.11439C-0.333328 3.11509 -0.333328 3.11578 1.66667 3.11578ZM2.09115 2.09099C3.50537 3.5052 3.50488 3.50569 3.5044 3.50617C3.50424 3.50633 3.50375 3.50682 3.50343 3.50714C3.50279 3.50778 3.50215 3.50841 3.50151 3.50904C3.50025 3.5103 3.499 3.51154 3.49776 3.51276C3.4953 3.5152 3.4929 3.51756 3.49057 3.51984C3.48591 3.5244 3.4815 3.52865 3.47735 3.53262C3.46906 3.54054 3.4617 3.54737 3.45523 3.55324C3.4424 3.5649 3.43249 3.5733 3.42501 3.57935C3.41143 3.59034 3.40078 3.59776 3.38933 3.60446C3.38028 3.60976 3.28535 3.6665 3.11595 3.6665V-0.333496C2.34624 -0.333496 1.73891 -0.0645101 1.36754 0.153033C1.17494 0.265856 1.02064 0.379393 0.908715 0.469969C0.852056 0.51582 0.80429 0.557382 0.765901 0.59225C0.746649 0.609735 0.729591 0.625686 0.714787 0.639824C0.707379 0.646899 0.700518 0.653535 0.694213 0.6597C0.69106 0.662783 0.688044 0.665749 0.685165 0.668596C0.683726 0.670019 0.682321 0.671413 0.68095 0.672776C0.680265 0.673457 0.679588 0.674131 0.67892 0.674797C0.678586 0.67513 0.678091 0.675625 0.677924 0.675791C0.677432 0.676283 0.676941 0.676774 2.09115 2.09099ZM3.11595 3.6665H16.8841V-0.333496H3.11595V3.6665ZM16.8841 1.6665C16.8841 3.6665 16.8834 3.6665 16.8827 3.6665C16.8825 3.6665 16.8818 3.6665 16.8813 3.6665C16.8804 3.6665 16.8795 3.6665 16.8786 3.6665C16.8768 3.66649 16.8751 3.66648 16.8733 3.66647C16.8699 3.66646 16.8665 3.66643 16.8632 3.66639C16.8567 3.66632 16.8506 3.66621 16.8449 3.66608C16.8334 3.66581 16.8234 3.66545 16.8146 3.66503C16.7973 3.66419 16.7844 3.66312 16.7748 3.66211C16.7574 3.66028 16.7447 3.65799 16.7318 3.65464C16.7217 3.65199 16.6144 3.62498 16.4946 3.5052L19.3231 0.676773C18.7788 0.132507 18.1592 -0.106741 17.7427 -0.215512C17.5268 -0.271924 17.3374 -0.300745 17.1942 -0.315841C17.1217 -0.323483 17.0585 -0.327869 17.0067 -0.330359C16.9808 -0.331608 16.9574 -0.332391 16.937 -0.332862C16.9267 -0.333098 16.9172 -0.333257 16.9083 -0.333356C16.9039 -0.333406 16.8997 -0.333441 16.8957 -0.333463C16.8936 -0.333475 16.8917 -0.333483 16.8897 -0.333488C16.8888 -0.333491 16.8878 -0.333493 16.8869 -0.333494C16.8864 -0.333495 16.8857 -0.333495 16.8855 -0.333496C16.8848 -0.333496 16.8841 -0.333496 16.8841 1.6665ZM17.9089 2.09099C16.4946 3.5052 16.4942 3.50471 16.4937 3.50423C16.4935 3.50407 16.493 3.50358 16.4927 3.50326C16.4921 3.50262 16.4914 3.50198 16.4908 3.50135C16.4895 3.50008 16.4883 3.49883 16.4871 3.4976C16.4846 3.49513 16.4823 3.49273 16.48 3.4904C16.4754 3.48574 16.4712 3.48134 16.4672 3.47718C16.4593 3.46889 16.4525 3.46154 16.4466 3.45507C16.4349 3.44224 16.4265 3.43232 16.4205 3.42484C16.4095 3.41126 16.4021 3.40061 16.3954 3.38917C16.3901 3.38011 16.3333 3.28518 16.3333 3.11578H20.3333C20.3333 2.34607 20.0644 1.73874 19.8468 1.36737C19.734 1.17477 19.6205 1.02047 19.5299 0.908546C19.484 0.851887 19.4425 0.804121 19.4076 0.765732C19.3901 0.74648 19.3742 0.729422 19.36 0.714617C19.3529 0.70721 19.3463 0.700349 19.3401 0.694044C19.3371 0.69089 19.3341 0.687874 19.3312 0.684996C19.3298 0.683556 19.3284 0.682151 19.3271 0.680781C19.3264 0.680095 19.3257 0.679419 19.325 0.678751C19.3247 0.678417 19.3242 0.677921 19.3241 0.677755C19.3236 0.677262 19.3231 0.676772 17.9089 2.09099ZM16.3333 3.11578V16.8839H20.3333V3.11578H16.3333ZM18.3333 16.8839C16.3333 16.8839 16.3333 16.8832 16.3333 16.8825C16.3333 16.8823 16.3333 16.8816 16.3333 16.8812C16.3333 16.8802 16.3333 16.8793 16.3333 16.8785C16.3334 16.8767 16.3334 16.8749 16.3334 16.8732C16.3334 16.8697 16.3334 16.8663 16.3335 16.8631C16.3335 16.8566 16.3336 16.8504 16.3338 16.8447C16.334 16.8332 16.3344 16.8232 16.3348 16.8145C16.3357 16.7972 16.3367 16.7842 16.3377 16.7746C16.3396 16.7573 16.3419 16.7445 16.3452 16.7317C16.3479 16.7215 16.3749 16.6143 16.4946 16.4945L19.3231 19.3229C19.8673 18.7786 20.1066 18.159 20.2154 17.7426C20.2718 17.5266 20.3006 17.3372 20.3157 17.194C20.3233 17.1215 20.3277 17.0584 20.3302 17.0066C20.3315 16.9806 20.3322 16.9573 20.3327 16.9368C20.3329 16.9265 20.3331 16.917 20.3332 16.9082C20.3333 16.9038 20.3333 16.8995 20.3333 16.8955C20.3333 16.8935 20.3333 16.8915 20.3333 16.8896C20.3333 16.8886 20.3333 16.8876 20.3333 16.8867C20.3333 16.8862 20.3333 16.8855 20.3333 16.8853C20.3333 16.8846 20.3333 16.8839 18.3333 16.8839ZM17.9089 17.9087C16.4946 16.4945 16.4951 16.494 16.4956 16.4935C16.4958 16.4933 16.4963 16.4929 16.4966 16.4925C16.4972 16.4919 16.4979 16.4913 16.4985 16.4906C16.4998 16.4894 16.501 16.4881 16.5022 16.4869C16.5047 16.4845 16.5071 16.4821 16.5094 16.4798C16.5141 16.4753 16.5185 16.471 16.5227 16.4671C16.531 16.4591 16.5383 16.4523 16.5448 16.4464C16.5576 16.4348 16.5675 16.4264 16.575 16.4203C16.5886 16.4093 16.5992 16.4019 16.6107 16.3952C16.6197 16.3899 16.7147 16.3332 16.8841 16.3332V20.3332C17.6538 20.3332 18.2611 20.0642 18.6325 19.8466C18.8251 19.7338 18.9794 19.6203 19.0913 19.5297C19.148 19.4839 19.1957 19.4423 19.2341 19.4074C19.2534 19.3899 19.2704 19.374 19.2852 19.3599C19.2926 19.3528 19.2995 19.3461 19.3058 19.34C19.309 19.3369 19.312 19.3339 19.3148 19.3311C19.3163 19.3297 19.3177 19.3283 19.3191 19.3269C19.3197 19.3262 19.3204 19.3255 19.3211 19.3249C19.3214 19.3245 19.3219 19.3241 19.3221 19.3239C19.3226 19.3234 19.3231 19.3229 17.9089 17.9087ZM16.8841 16.3332H3.11595V20.3332H16.8841V16.3332ZM3.11595 18.3332C3.11595 16.3332 3.11664 16.3332 3.11732 16.3332C3.11755 16.3332 3.11824 16.3332 3.11869 16.3332C3.1196 16.3332 3.1205 16.3332 3.12139 16.3332C3.12318 16.3332 3.12494 16.3332 3.12667 16.3332C3.13014 16.3332 3.1335 16.3332 3.13676 16.3333C3.14328 16.3334 3.14941 16.3335 3.15515 16.3336C3.16661 16.3339 3.17664 16.3342 3.18537 16.3347C3.20268 16.3355 3.21563 16.3366 3.22521 16.3376C3.24257 16.3394 3.25535 16.3417 3.26818 16.345C3.27833 16.3477 3.38558 16.3747 3.50537 16.4945L0.67694 19.3229C1.22121 19.8672 1.84086 20.1064 2.25728 20.2152C2.47325 20.2716 2.66264 20.3004 2.80582 20.3155C2.87831 20.3232 2.94147 20.3275 2.99327 20.33C3.01925 20.3313 3.04259 20.3321 3.06306 20.3325C3.0733 20.3328 3.08284 20.3329 3.09166 20.333C3.09607 20.3331 3.1003 20.3331 3.10435 20.3331C3.10637 20.3332 3.10835 20.3332 3.11028 20.3332C3.11125 20.3332 3.11221 20.3332 3.11315 20.3332C3.11362 20.3332 3.11432 20.3332 3.11456 20.3332C3.11525 20.3332 3.11595 20.3332 3.11595 18.3332ZM2.09115 17.9087C3.50537 16.4945 3.50586 16.495 3.50634 16.4954C3.5065 16.4956 3.50699 16.4961 3.50731 16.4964C3.50795 16.4971 3.50858 16.4977 3.50921 16.4983C3.51047 16.4996 3.51171 16.5008 3.51293 16.5021C3.51537 16.5045 3.51773 16.5069 3.52001 16.5093C3.52456 16.5139 3.52882 16.5183 3.53278 16.5225C3.5407 16.5308 3.54753 16.5381 3.55341 16.5446C3.56507 16.5574 3.57347 16.5674 3.57952 16.5748C3.59051 16.5884 3.59792 16.5991 3.60463 16.6105C3.60993 16.6196 3.66667 16.7145 3.66667 16.8839H-0.333328C-0.333328 17.6536 -0.0643427 18.2609 0.153201 18.6323C0.266024 18.8249 0.379561 18.9792 0.470136 19.0911C0.515988 19.1478 0.55755 19.1956 0.592418 19.2339C0.609903 19.2532 0.625854 19.2703 0.639992 19.2851C0.647066 19.2925 0.653703 19.2993 0.659867 19.3056C0.66295 19.3088 0.665917 19.3118 0.668764 19.3147C0.670187 19.3161 0.67158 19.3175 0.672943 19.3189C0.673625 19.3196 0.674299 19.3203 0.674965 19.3209C0.675298 19.3213 0.675793 19.3218 0.675959 19.3219C0.676451 19.3224 0.676941 19.3229 2.09115 17.9087ZM3.66667 16.8839V3.11578H-0.333328V16.8839H3.66667ZM1.11595 3.11578V16.8839H5.11595V3.11578H1.11595ZM3.11595 18.8839H16.8841V14.8839H3.11595V18.8839ZM18.8841 16.8839V3.11578H14.8841V16.8839H18.8841ZM16.8841 1.11578H3.11595V5.11578H16.8841V1.11578ZM7.27537 2.39114V17.6085H11.2754V2.39114H7.27537ZM7.27537 17.6085C7.27537 19.1133 8.49523 20.3332 10 20.3332V16.3332C10.7044 16.3332 11.2754 16.9042 11.2754 17.6085H7.27537ZM10 20.3332C11.5048 20.3332 12.7246 19.1133 12.7246 17.6085H8.72464C8.72464 16.9042 9.29564 16.3332 10 16.3332V20.3332ZM12.7246 17.6085V2.39114H8.72464V17.6085H12.7246ZM12.7246 2.39114C12.7246 0.886366 11.5048 -0.333496 10 -0.333496V3.6665C9.29564 3.6665 8.72464 3.0955 8.72464 2.39114H12.7246ZM10 -0.333496C8.49523 -0.333496 7.27537 0.886366 7.27537 2.39114H11.2754C11.2754 3.0955 10.7044 3.6665 10 3.6665V-0.333496ZM17.6087 7.2752H2.39131V11.2752H17.6087V7.2752ZM2.39131 7.2752C0.886534 7.2752 -0.333328 8.49506 -0.333328 9.99984H3.66667C3.66667 10.7042 3.09567 11.2752 2.39131 11.2752V7.2752ZM-0.333328 9.99984C-0.333328 11.5046 0.886534 12.7245 2.39131 12.7245V8.72448C3.09567 8.72448 3.66667 9.29547 3.66667 9.99984H-0.333328ZM2.39131 12.7245H17.6087V8.72448H2.39131V12.7245ZM17.6087 12.7245C19.1135 12.7245 20.3333 11.5046 20.3333 9.99984H16.3333C16.3333 9.29547 16.9043 8.72448 17.6087 8.72448V12.7245ZM20.3333 9.99984C20.3333 8.49506 19.1135 7.2752 17.6087 7.2752V11.2752C16.9043 11.2752 16.3333 10.7042 16.3333 9.99984H20.3333Z" fill="#C9CDD2" mask="url(#path-1-inside-1_2269_2119)"/>
</svg>