<svg xmlns="http://www.w3.org/2000/svg" width="21" height="20" viewBox="0 0 21 20" fill="none">
<path d="M6.69049 3.51836C5.11253 3.51836 3.83334 4.76201 3.83334 6.29613V15.5554C3.83334 17.0895 5.11253 18.3332 6.69049 18.3332H14.3095C15.8875 18.3332 17.1667 17.0895 17.1667 15.5554V6.29613C17.1667 4.76201 15.8875 3.51836 14.3095 3.51836H13.3572M13.3572 3.51836V2.59243C13.3572 2.08106 12.9308 1.6665 12.4048 1.6665H8.59525C8.06926 1.6665 7.64287 2.08106 7.64287 2.59243V4.44428C7.64287 4.95566 8.06926 5.37021 8.59525 5.37021H12.4048C12.9308 5.37021 13.3572 4.95566 13.3572 4.44428V3.51836Z" stroke="#C9CDD2" stroke-width="2" stroke-linecap="round" stroke-linejoin="round"/>
</svg>