<svg width="24" height="23" viewBox="0 0 24 23" fill="none" xmlns="http://www.w3.org/2000/svg">
<path d="M18 5.75033H6M18 5.75033C20.2091 5.75033 22 7.46657 22 9.58366V17.2503C22 19.3674 20.2091 21.0837 18 21.0837H6C3.79086 21.0837 2 19.3674 2 17.2503V9.58366C2 7.46657 3.79086 5.75033 6 5.75033M18 5.75033C16.8954 5.75033 16 4.8922 16 3.83366C16 2.77511 15.1046 1.91699 14 1.91699H10C8.89543 1.91699 8 2.77511 8 3.83366C8 4.8922 7.10457 5.75033 6 5.75033" stroke="#3E4859" stroke-width="2" stroke-linecap="round" stroke-linejoin="round"/>
</svg>
