<svg xmlns="http://www.w3.org/2000/svg" width="31" height="30" viewBox="0 0 31 30" fill="none">
    <path d="M26.75 23.7492V12.7553C26.75 11.501 26.1234 10.3298 25.0801 9.63406L16.8868 4.17001C16.047 3.61 14.953 3.61 14.1132 4.17001L5.91987 9.63406C4.87663 10.3298 4.25 11.501 4.25 12.7553V23.7492C4.25 25.1303 5.36929 26.25 6.75 26.25H11.125C11.8154 26.25 12.375 25.6902 12.375 24.9996V21.8736C12.375 20.4924 13.4943 19.3727 14.875 19.3727H16.125C17.5057 19.3727 18.625 20.4924 18.625 21.8736V24.9996C18.625 25.6902 19.1846 26.25 19.875 26.25H24.25C25.6307 26.25 26.75 25.1303 26.75 23.7492Z" stroke="#6F7786" stroke-width="2" stroke-linecap="round" stroke-linejoin="round"/>
</svg>