<svg width="24" height="24" viewBox="0 0 24 24" fill="none" xmlns="http://www.w3.org/2000/svg">
<path d="M15 8.58824V5C15 3.34315 13.6569 2 12 2C10.3431 2 9 3.34315 9 5L9 8.58824C9 8.81565 8.81565 9 8.58823 9H5C3.34315 9 2 10.3431 2 12C2 13.6569 3.34315 15 5 15H8.58823C8.81565 15 9 15.1844 9 15.4118L9 19C9 20.6569 10.3431 22 12 22C13.6569 22 15 20.6569 15 19L15 15.4118C15 15.1844 15.1844 15 15.4118 15H19C20.6569 15 22 13.6569 22 12C22 10.3431 20.6569 9 19 9H15.4118C15.1844 9 15 8.81565 15 8.58824Z" stroke="#686b6e" stroke-width="2" stroke-linecap="round" stroke-linejoin="round"/>
</svg>
