<svg xmlns="http://www.w3.org/2000/svg" width="21" height="20" viewBox="0 0 21 20" fill="none">
<mask id="path-1-inside-1_2269_2113" fill="white">
<path fill-rule="evenodd" clip-rule="evenodd" d="M2.16666 12.4244C2.16666 12.4244 2.16666 11.7654 2.57345 11.2995C2.57345 11.2995 2.98025 10.8335 3.55555 10.8335H17.4444C17.4444 10.8335 18.0197 10.8335 18.4265 11.2995C18.4265 11.2995 18.8333 11.7654 18.8333 12.4244V16.4017C18.8333 16.4017 18.8333 17.0607 18.4265 17.5266C18.4265 17.5266 18.0197 17.9926 17.4444 17.9926H3.55555C3.55555 17.9926 2.98025 17.9926 2.57345 17.5266C2.57345 17.5266 2.16666 17.0607 2.16666 16.4017V12.4244ZM3.55555 12.4244V16.4017H17.4444V12.4244H3.55555Z"/>
<path fill-rule="evenodd" clip-rule="evenodd" d="M2.16666 3.67441C2.16666 3.67441 2.16666 3.01543 2.57345 2.54946C2.57345 2.54946 2.98025 2.0835 3.55555 2.0835H17.4444C17.4444 2.0835 18.0197 2.0835 18.4265 2.54946C18.4265 2.54946 18.8333 3.01543 18.8333 3.67441V7.65168C18.8333 7.65168 18.8333 8.31066 18.4265 8.77662C18.4265 8.77662 18.0197 9.24259 17.4444 9.24259H3.55555C3.55555 9.24259 2.98025 9.24259 2.57345 8.77662C2.57345 8.77662 2.16666 8.31065 2.16666 7.65168V3.67441ZM3.55555 3.67441V7.65168H17.4444V3.67441H3.55555Z"/>
</mask>
<path d="M2.57345 11.2995L4.08009 12.6148L4.08009 12.6148L2.57345 11.2995ZM17.4444 10.8335L17.4444 8.8335H17.4444V10.8335ZM18.4265 11.2995L16.9199 12.6148L16.9199 12.6148L18.4265 11.2995ZM18.4265 17.5266L19.9332 18.8419L19.9332 18.8419L18.4265 17.5266ZM2.57345 17.5266L4.08009 16.2113H4.08009L2.57345 17.5266ZM3.55555 12.4244V10.4244H1.55555V12.4244H3.55555ZM3.55555 16.4017H1.55555V18.4017H3.55555V16.4017ZM17.4444 16.4017V18.4017H19.4444V16.4017H17.4444ZM17.4444 12.4244H19.4444V10.4244H17.4444V12.4244ZM2.57345 2.54946L4.08009 3.86478L4.08009 3.86478L2.57345 2.54946ZM18.4265 2.54946L16.9199 3.86478L16.9199 3.86478L18.4265 2.54946ZM18.4265 8.77662L19.9332 10.0919L19.9332 10.0919L18.4265 8.77662ZM2.57345 8.77662L4.08009 7.46131L4.08009 7.4613L2.57345 8.77662ZM3.55555 3.67441V1.67441H1.55555V3.67441H3.55555ZM3.55555 7.65168H1.55555V9.65168H3.55555V7.65168ZM17.4444 7.65168V9.65168H19.4444V7.65168H17.4444ZM17.4444 3.67441H19.4444V1.67441H17.4444V3.67441ZM2.16666 12.4244C4.16666 12.4244 4.16666 12.425 4.16666 12.4256C4.16666 12.4258 4.16666 12.4264 4.16666 12.4268C4.16665 12.4276 4.16665 12.4284 4.16665 12.4291C4.16665 12.4307 4.16664 12.4322 4.16663 12.4337C4.16662 12.4366 4.1666 12.4395 4.16657 12.4422C4.16652 12.4476 4.16644 12.4526 4.16635 12.4571C4.16617 12.4661 4.16593 12.4734 4.16569 12.4791C4.16522 12.4903 4.16473 12.496 4.16459 12.4975C4.16449 12.4986 4.16527 12.4909 4.16745 12.4813C4.17737 12.4378 4.1736 12.5077 4.08009 12.6148L1.06682 9.98415C0.566514 10.5572 0.359339 11.1895 0.267562 11.592C0.218895 11.8054 0.194243 11.9916 0.18143 12.1309C0.174943 12.2013 0.171272 12.2622 0.169211 12.3113C0.168177 12.3359 0.167539 12.3578 0.16716 12.3767C0.16697 12.3861 0.166844 12.3949 0.166766 12.4028C0.166727 12.4068 0.166699 12.4106 0.166682 12.4142C0.166673 12.416 0.166667 12.4177 0.166663 12.4194C0.166661 12.4203 0.166659 12.4211 0.166658 12.422C0.166658 12.4224 0.166657 12.423 0.166657 12.4232C0.166657 12.4238 0.166656 12.4244 2.16666 12.4244ZM2.57345 11.2995C4.08009 12.6148 4.07964 12.6153 4.07919 12.6158C4.07904 12.616 4.0786 12.6165 4.0783 12.6168C4.07771 12.6175 4.07712 12.6182 4.07654 12.6188C4.07537 12.6202 4.07422 12.6215 4.07308 12.6228C4.07081 12.6253 4.0686 12.6278 4.06646 12.6302C4.06217 12.635 4.05812 12.6395 4.0543 12.6437C4.04668 12.652 4.03992 12.6592 4.03396 12.6654C4.02217 12.6777 4.0129 12.6867 4.00564 12.6934C3.99285 12.7053 3.98002 12.7159 3.96313 12.7273C3.94926 12.7366 3.80695 12.8335 3.55555 12.8335V8.8335C2.72884 8.8335 2.09549 9.16341 1.73439 9.4057C1.54389 9.53353 1.39341 9.66067 1.28637 9.7599C1.23198 9.81031 1.18643 9.85572 1.15015 9.89348C1.13194 9.91242 1.11588 9.92962 1.10202 9.94479C1.09508 9.95237 1.08868 9.95947 1.08281 9.96604C1.07988 9.96932 1.07708 9.97247 1.07442 9.97549C1.07308 9.977 1.07178 9.97848 1.07052 9.97992C1.06988 9.98064 1.06926 9.98136 1.06864 9.98206C1.06834 9.98241 1.06788 9.98294 1.06772 9.98311C1.06727 9.98363 1.06682 9.98415 2.57345 11.2995ZM3.55555 12.8335H17.4444V8.8335H3.55555V12.8335ZM17.4444 10.8335C17.4444 12.8335 17.4436 12.8335 17.4429 12.8335C17.4426 12.8335 17.4418 12.8335 17.4413 12.8335C17.4402 12.8335 17.4392 12.8335 17.4382 12.8335C17.4361 12.8335 17.4341 12.8335 17.4321 12.8335C17.428 12.8334 17.4241 12.8334 17.4203 12.8333C17.4126 12.8332 17.4053 12.8331 17.3983 12.8329C17.3843 12.8325 17.3716 12.832 17.36 12.8314C17.3369 12.8301 17.3175 12.8284 17.3009 12.8264C17.2694 12.8225 17.2399 12.8169 17.2096 12.8078C17.154 12.7912 17.0313 12.7424 16.9199 12.6148L19.9332 9.98415C19.4149 9.39052 18.8012 9.10882 18.3562 8.97567C18.1313 8.90836 17.9326 8.87357 17.7805 8.8552C17.7035 8.84591 17.636 8.84052 17.5799 8.83743C17.5518 8.83588 17.5263 8.8349 17.5037 8.83431C17.4924 8.83401 17.4818 8.83381 17.4719 8.83368C17.467 8.83361 17.4622 8.83357 17.4576 8.83354C17.4553 8.83352 17.4531 8.83351 17.4509 8.83351C17.4498 8.8335 17.4487 8.8335 17.4476 8.8335C17.4471 8.8335 17.4463 8.8335 17.446 8.8335C17.4452 8.8335 17.4444 8.8335 17.4444 10.8335ZM18.4265 11.2995C16.9199 12.6148 16.9194 12.6143 16.919 12.6138C16.9189 12.6136 16.9184 12.6131 16.9181 12.6127C16.9175 12.6121 16.9169 12.6114 16.9164 12.6107C16.9152 12.6094 16.9141 12.6081 16.9129 12.6068C16.9107 12.6042 16.9086 12.6017 16.9065 12.5992C16.9023 12.5944 16.8985 12.5898 16.8949 12.5856C16.8879 12.5771 16.8819 12.5697 16.8769 12.5634C16.8669 12.5509 16.8605 12.5421 16.8566 12.5366C16.8528 12.5311 16.8508 12.528 16.8501 12.5268C16.8497 12.5262 16.8495 12.5258 16.8494 12.5257C16.8493 12.5255 16.8493 12.5255 16.8493 12.5254C16.8492 12.5254 16.8492 12.5253 16.849 12.5249C16.8489 12.5246 16.8486 12.5239 16.8481 12.5228C16.8473 12.5209 16.8457 12.5164 16.8437 12.5093C16.8398 12.4953 16.8333 12.466 16.8333 12.4244H20.8333C20.8333 11.6861 20.6076 11.0895 20.4106 10.7042C20.3095 10.5066 20.2068 10.3464 20.1236 10.2285C20.0815 10.169 20.0433 10.1187 20.0111 10.0782C19.995 10.0578 19.9803 10.0398 19.9673 10.0241C19.9607 10.0163 19.9546 10.0091 19.9489 10.0024C19.9461 9.99906 19.9433 9.99587 19.9407 9.99283C19.9394 9.99131 19.9381 9.98983 19.9368 9.98838C19.9362 9.98766 19.9356 9.98694 19.935 9.98624C19.9347 9.98588 19.9342 9.98536 19.9341 9.98518C19.9336 9.98466 19.9332 9.98415 18.4265 11.2995ZM16.8333 12.4244V16.4017H20.8333V12.4244H16.8333ZM18.8333 16.4017C16.8333 16.4017 16.8333 16.4011 16.8333 16.4005C16.8333 16.4003 16.8333 16.3997 16.8333 16.3993C16.8333 16.3985 16.8333 16.3977 16.8333 16.397C16.8333 16.3954 16.8333 16.3939 16.8333 16.3924C16.8334 16.3895 16.8334 16.3866 16.8334 16.3839C16.8335 16.3785 16.8335 16.3735 16.8336 16.369C16.8338 16.36 16.8341 16.3527 16.8343 16.347C16.8348 16.3358 16.8353 16.33 16.8354 16.3286C16.8355 16.3275 16.8347 16.3352 16.8325 16.3448C16.8226 16.3883 16.8264 16.3184 16.9199 16.2113L19.9332 18.8419C20.4335 18.2689 20.6406 17.6365 20.7324 17.2341C20.7811 17.0206 20.8057 16.8344 20.8186 16.6952C20.825 16.6247 20.8287 16.5639 20.8308 16.5148C20.8318 16.4902 20.8324 16.4683 20.8328 16.4494C20.833 16.4399 20.8331 16.4312 20.8332 16.4233C20.8333 16.4193 20.8333 16.4155 20.8333 16.4119C20.8333 16.4101 20.8333 16.4083 20.8333 16.4066C20.8333 16.4058 20.8333 16.405 20.8333 16.4041C20.8333 16.4037 20.8333 16.4031 20.8333 16.4029C20.8333 16.4023 20.8333 16.4017 18.8333 16.4017ZM18.4265 17.5266C16.9199 16.2113 16.9203 16.2108 16.9208 16.2103C16.9209 16.2101 16.9214 16.2096 16.9217 16.2093C16.9223 16.2086 16.9229 16.2079 16.9234 16.2072C16.9246 16.2059 16.9258 16.2046 16.9269 16.2033C16.9292 16.2008 16.9314 16.1983 16.9335 16.1959C16.9378 16.1911 16.9419 16.1866 16.9457 16.1824C16.9533 16.1741 16.9601 16.1669 16.966 16.1607C16.9778 16.1484 16.9871 16.1394 16.9943 16.1327C17.0071 16.1208 17.02 16.1102 17.0369 16.0988C17.0507 16.0895 17.193 15.9926 17.4444 15.9926V19.9926C18.2711 19.9926 18.9045 19.6627 19.2656 19.4204C19.4561 19.2926 19.6066 19.1654 19.7136 19.0662C19.768 19.0158 19.8135 18.9704 19.8498 18.9326C19.868 18.9137 19.8841 18.8965 19.898 18.8813C19.9049 18.8737 19.9113 18.8666 19.9172 18.8601C19.9201 18.8568 19.9229 18.8536 19.9256 18.8506C19.9269 18.8491 19.9282 18.8476 19.9295 18.8462C19.9301 18.8454 19.9307 18.8447 19.9313 18.844C19.9316 18.8437 19.9321 18.8432 19.9323 18.843C19.9327 18.8425 19.9332 18.8419 18.4265 17.5266ZM17.4444 15.9926H3.55555V19.9926H17.4444V15.9926ZM3.55555 17.9926C3.55555 15.9926 3.55634 15.9926 3.55712 15.9926C3.55738 15.9926 3.55817 15.9926 3.55869 15.9926C3.55973 15.9926 3.56077 15.9926 3.5618 15.9926C3.56386 15.9926 3.5659 15.9926 3.56791 15.9926C3.57194 15.9927 3.57587 15.9927 3.57971 15.9927C3.5874 15.9928 3.59473 15.993 3.60172 15.9932C3.61569 15.9935 3.62841 15.9941 3.64001 15.9947C3.66304 15.996 3.68245 15.9977 3.69908 15.9997C3.73061 16.0035 3.76004 16.0092 3.79033 16.0183C3.84601 16.0349 3.96863 16.0836 4.08009 16.2113L1.06682 18.8419C1.58507 19.4356 2.19874 19.7173 2.64376 19.8504C2.86873 19.9177 3.0674 19.9525 3.21952 19.9709C3.29644 19.9802 3.36397 19.9856 3.42005 19.9887C3.44817 19.9902 3.47365 19.9912 3.49625 19.9918C3.50756 19.9921 3.51817 19.9923 3.52805 19.9924C3.533 19.9925 3.53776 19.9925 3.54234 19.9925C3.54463 19.9926 3.54688 19.9926 3.54908 19.9926C3.55018 19.9926 3.55127 19.9926 3.55235 19.9926C3.55289 19.9926 3.55369 19.9926 3.55395 19.9926C3.55475 19.9926 3.55555 19.9926 3.55555 17.9926ZM2.57345 17.5266C4.08009 16.2113 4.08053 16.2118 4.08098 16.2123C4.08113 16.2125 4.08158 16.213 4.08187 16.2134C4.08246 16.214 4.08304 16.2147 4.08362 16.2154C4.08478 16.2167 4.08592 16.218 4.08704 16.2193C4.08927 16.2219 4.09142 16.2244 4.0935 16.2268C4.09765 16.2317 4.10149 16.2363 4.10504 16.2405C4.11213 16.249 4.11811 16.2564 4.12311 16.2627C4.13303 16.2752 4.13946 16.284 4.14336 16.2895C4.14723 16.295 4.14917 16.2981 4.1499 16.2992C4.1503 16.2999 4.15051 16.3003 4.15059 16.3004C4.15067 16.3005 4.1507 16.3006 4.15071 16.3006C4.15073 16.3007 4.15081 16.3008 4.15097 16.3012C4.15112 16.3015 4.15142 16.3022 4.15185 16.3032C4.15263 16.3052 4.15432 16.3096 4.1563 16.3167C4.16022 16.3308 4.16666 16.3601 4.16666 16.4017H0.166656C0.166656 17.14 0.39236 17.7366 0.589395 18.1219C0.690461 18.3195 0.793146 18.4797 0.876426 18.5975C0.918456 18.657 0.956667 18.7074 0.988838 18.7479C1.00496 18.7683 1.01968 18.7863 1.03273 18.8019C1.03926 18.8098 1.04539 18.817 1.05107 18.8237C1.05392 18.827 1.05665 18.8302 1.05928 18.8333C1.06059 18.8348 1.06188 18.8363 1.06313 18.8377C1.06376 18.8384 1.06438 18.8391 1.065 18.8398C1.06531 18.8402 1.06576 18.8407 1.06591 18.8409C1.06637 18.8414 1.06682 18.8419 2.57345 17.5266ZM4.16666 16.4017V12.4244H0.166656V16.4017H4.16666ZM1.55555 12.4244V16.4017H5.55555V12.4244H1.55555ZM3.55555 18.4017H17.4444V14.4017H3.55555V18.4017ZM19.4444 16.4017V12.4244H15.4444V16.4017H19.4444ZM17.4444 10.4244H3.55555V14.4244H17.4444V10.4244ZM2.16666 3.67441C4.16666 3.67441 4.16666 3.67501 4.16666 3.6756C4.16666 3.6758 4.16666 3.6764 4.16666 3.67679C4.16665 3.67758 4.16665 3.67836 4.16665 3.67913C4.16665 3.68068 4.16664 3.68219 4.16663 3.68367C4.16662 3.68663 4.1666 3.68947 4.16657 3.69219C4.16652 3.69762 4.16644 3.70258 4.16635 3.70709C4.16617 3.71609 4.16593 3.72336 4.16569 3.72905C4.16522 3.74031 4.16473 3.74604 4.16459 3.74746C4.16449 3.74855 4.16527 3.7409 4.16745 3.73133C4.17737 3.68782 4.1736 3.75767 4.08009 3.86478L1.06682 1.23415C0.566514 1.80722 0.359339 2.43955 0.267562 2.84202C0.218895 3.05544 0.194243 3.24165 0.18143 3.38086C0.174943 3.45134 0.171272 3.51219 0.169211 3.56131C0.168177 3.58593 0.167539 3.60781 0.16716 3.62669C0.16697 3.63614 0.166844 3.64486 0.166766 3.65281C0.166727 3.65679 0.166699 3.66058 0.166682 3.66418C0.166673 3.66598 0.166667 3.66773 0.166663 3.66944C0.166661 3.67029 0.166659 3.67113 0.166658 3.67196C0.166658 3.67237 0.166657 3.67298 0.166657 3.67319C0.166657 3.6738 0.166656 3.67441 2.16666 3.67441ZM2.57345 2.54946C4.08009 3.86478 4.07964 3.86529 4.07919 3.8658C4.07904 3.86597 4.07859 3.86648 4.0783 3.86682C4.07771 3.8675 4.07712 3.86817 4.07654 3.86883C4.07537 3.87016 4.07422 3.87147 4.07308 3.87276C4.07081 3.87533 4.0686 3.87781 4.06646 3.88022C4.06217 3.88502 4.05812 3.8895 4.0543 3.89367C4.04668 3.90201 4.03992 3.90921 4.03396 3.91541C4.02217 3.92768 4.0129 3.93669 4.00564 3.94342C3.99284 3.95528 3.98002 3.96592 3.96313 3.97726C3.94926 3.98657 3.80695 4.0835 3.55555 4.0835V0.0834961C2.72884 0.0834961 2.09549 0.41341 1.73439 0.655702C1.54389 0.783527 1.39341 0.910665 1.28637 1.0099C1.23198 1.06031 1.18643 1.10572 1.15015 1.14347C1.13194 1.16242 1.11588 1.17962 1.10202 1.19478C1.09508 1.20237 1.08868 1.20947 1.08282 1.21603C1.07988 1.21932 1.07708 1.22247 1.07442 1.22549C1.07308 1.227 1.07178 1.22848 1.07052 1.22992C1.06989 1.23064 1.06926 1.23136 1.06864 1.23206C1.06834 1.23241 1.06788 1.23293 1.06772 1.23311C1.06727 1.23363 1.06682 1.23415 2.57345 2.54946ZM3.55555 4.0835H17.4444V0.0834961H3.55555V4.0835ZM17.4444 2.0835C17.4444 4.0835 17.4436 4.0835 17.4429 4.0835C17.4426 4.0835 17.4418 4.08349 17.4413 4.08349C17.4402 4.08349 17.4392 4.08349 17.4382 4.08349C17.4361 4.08348 17.4341 4.08347 17.4321 4.08346C17.428 4.08343 17.4241 4.08339 17.4203 4.08334C17.4126 4.08324 17.4053 4.0831 17.3983 4.08291C17.3843 4.08255 17.3716 4.08202 17.36 4.08138C17.3369 4.08011 17.3175 4.07836 17.3009 4.07635C17.2694 4.07254 17.2399 4.06688 17.2096 4.05782C17.154 4.04116 17.0313 3.99244 16.9199 3.86478L19.9332 1.23415C19.4149 0.640515 18.8012 0.358815 18.3562 0.225666C18.1312 0.158357 17.9326 0.123572 17.7805 0.105202C17.7035 0.0959136 17.636 0.0905207 17.5799 0.0874323C17.5518 0.0858836 17.5263 0.0849012 17.5037 0.0843053C17.4924 0.084007 17.4818 0.0838048 17.4719 0.0836772C17.467 0.0836133 17.4622 0.083568 17.4576 0.0835388C17.4553 0.0835241 17.4531 0.0835134 17.4509 0.0835065C17.4498 0.0835029 17.4487 0.0835004 17.4476 0.0834986C17.4471 0.0834979 17.4463 0.0834969 17.446 0.0834967C17.4452 0.0834962 17.4444 0.0834961 17.4444 2.0835ZM18.4265 2.54946C16.9199 3.86478 16.9194 3.86426 16.919 3.86375C16.9189 3.86358 16.9184 3.86307 16.9181 3.86273C16.9175 3.86206 16.9169 3.86138 16.9164 3.86072C16.9152 3.85938 16.9141 3.85807 16.9129 3.85677C16.9107 3.85419 16.9086 3.85168 16.9065 3.84925C16.9023 3.84439 16.8985 3.83983 16.8949 3.83557C16.8879 3.82706 16.8819 3.81969 16.8769 3.81338C16.8669 3.80087 16.8605 3.79211 16.8566 3.7866C16.8528 3.78112 16.8508 3.77802 16.8501 3.77684C16.8497 3.77619 16.8495 3.77582 16.8494 3.77568C16.8493 3.77554 16.8493 3.77548 16.8493 3.77545C16.8492 3.77542 16.8492 3.77525 16.849 3.77491C16.8489 3.77458 16.8486 3.7739 16.8481 3.77284C16.8473 3.77088 16.8457 3.76643 16.8437 3.75934C16.8398 3.74533 16.8333 3.71602 16.8333 3.67441H20.8333C20.8333 2.9361 20.6076 2.33947 20.4106 1.95419C20.3095 1.75656 20.2068 1.59641 20.1236 1.47853C20.0815 1.41904 20.0433 1.36873 20.0111 1.32816C19.995 1.30783 19.9803 1.2898 19.9673 1.27414C19.9607 1.26631 19.9546 1.25906 19.9489 1.25239C19.9461 1.24906 19.9433 1.24587 19.9407 1.24283C19.9394 1.24131 19.9381 1.23983 19.9368 1.23838C19.9362 1.23766 19.9356 1.23694 19.935 1.23624C19.9347 1.23588 19.9342 1.23536 19.9341 1.23518C19.9336 1.23466 19.9332 1.23415 18.4265 2.54946ZM16.8333 3.67441V7.65168H20.8333V3.67441H16.8333ZM18.8333 7.65168C16.8333 7.65168 16.8333 7.65108 16.8333 7.65048C16.8333 7.65028 16.8333 7.64968 16.8333 7.64929C16.8333 7.6485 16.8333 7.64772 16.8333 7.64695C16.8333 7.64541 16.8333 7.64389 16.8333 7.64241C16.8334 7.63945 16.8334 7.63661 16.8334 7.63389C16.8335 7.62846 16.8335 7.6235 16.8336 7.61899C16.8338 7.60999 16.8341 7.60273 16.8343 7.59703C16.8348 7.58577 16.8353 7.58004 16.8354 7.57862C16.8355 7.57753 16.8347 7.58519 16.8325 7.59476C16.8226 7.63827 16.8264 7.56842 16.9199 7.46131L19.9332 10.0919C20.4335 9.51886 20.6406 8.88653 20.7324 8.48407C20.7811 8.27065 20.8057 8.08443 20.8186 7.94523C20.825 7.87475 20.8287 7.81389 20.8308 7.76478C20.8318 7.74015 20.8324 7.71827 20.8328 7.69939C20.833 7.68994 20.8331 7.68123 20.8332 7.67327C20.8333 7.66929 20.8333 7.6655 20.8333 7.6619C20.8333 7.6601 20.8333 7.65835 20.8333 7.65665C20.8333 7.65579 20.8333 7.65495 20.8333 7.65413C20.8333 7.65371 20.8333 7.6531 20.8333 7.65289C20.8333 7.65228 20.8333 7.65168 18.8333 7.65168ZM18.4265 8.77662C16.9199 7.4613 16.9203 7.46079 16.9208 7.46028C16.9209 7.46011 16.9214 7.4596 16.9217 7.45926C16.9223 7.45858 16.9229 7.45791 16.9234 7.45725C16.9246 7.45592 16.9258 7.45461 16.9269 7.45333C16.9292 7.45075 16.9314 7.44827 16.9335 7.44587C16.9378 7.44106 16.9419 7.43658 16.9457 7.43241C16.9533 7.42407 16.9601 7.41688 16.966 7.41068C16.9778 7.39841 16.9871 7.38939 16.9943 7.38267C17.0071 7.3708 17.02 7.36016 17.0369 7.34882C17.0507 7.33952 17.193 7.24259 17.4444 7.24259V11.2426C18.2711 11.2426 18.9045 10.9127 19.2656 10.6704C19.4561 10.5426 19.6066 10.4154 19.7136 10.3162C19.768 10.2658 19.8135 10.2204 19.8498 10.1826C19.868 10.1637 19.8841 10.1465 19.898 10.1313C19.9049 10.1237 19.9113 10.1166 19.9172 10.1101C19.9201 10.1068 19.9229 10.1036 19.9256 10.1006C19.9269 10.0991 19.9282 10.0976 19.9295 10.0962C19.9301 10.0954 19.9307 10.0947 19.9313 10.094C19.9316 10.0937 19.9321 10.0932 19.9323 10.093C19.9327 10.0925 19.9332 10.0919 18.4265 8.77662ZM17.4444 7.24259H3.55555V11.2426H17.4444V7.24259ZM3.55555 9.24259C3.55555 7.24259 3.55634 7.24259 3.55712 7.24259C3.55738 7.24259 3.55817 7.24259 3.55869 7.24259C3.55973 7.24259 3.56077 7.24259 3.5618 7.2426C3.56386 7.2426 3.5659 7.24261 3.56791 7.24263C3.57194 7.24265 3.57587 7.24269 3.57971 7.24274C3.5874 7.24284 3.59473 7.24298 3.60172 7.24317C3.61569 7.24354 3.62841 7.24406 3.64001 7.2447C3.66304 7.24597 3.68245 7.24772 3.69908 7.24973C3.73061 7.25354 3.76004 7.2592 3.79033 7.26827C3.84601 7.28492 3.96863 7.33364 4.08009 7.46131L1.06682 10.0919C1.58507 10.6856 2.19874 10.9673 2.64376 11.1004C2.86873 11.1677 3.0674 11.2025 3.21952 11.2209C3.29644 11.2302 3.36397 11.2356 3.42005 11.2387C3.44817 11.2402 3.47365 11.2412 3.49625 11.2418C3.50756 11.2421 3.51817 11.2423 3.52805 11.2424C3.533 11.2425 3.53776 11.2425 3.54234 11.2425C3.54463 11.2426 3.54688 11.2426 3.54908 11.2426C3.55018 11.2426 3.55127 11.2426 3.55235 11.2426C3.55289 11.2426 3.55369 11.2426 3.55395 11.2426C3.55475 11.2426 3.55555 11.2426 3.55555 9.24259ZM2.57345 8.77662C4.08009 7.4613 4.08053 7.46182 4.08098 7.46233C4.08113 7.4625 4.08158 7.46301 4.08187 7.46335C4.08246 7.46403 4.08304 7.4647 4.08362 7.46537C4.08478 7.4667 4.08592 7.46801 4.08704 7.46931C4.08927 7.4719 4.09142 7.47441 4.0935 7.47684C4.09765 7.4817 4.10149 7.48625 4.10504 7.49051C4.11213 7.49902 4.11811 7.50639 4.12311 7.5127C4.13303 7.52521 4.13946 7.53397 4.14336 7.53948C4.14723 7.54497 4.14917 7.54806 4.1499 7.54924C4.1503 7.54989 4.15051 7.55026 4.15059 7.5504C4.15067 7.55054 4.1507 7.5506 4.15071 7.55063C4.15073 7.55067 4.15081 7.55083 4.15097 7.55117C4.15112 7.5515 4.15142 7.55218 4.15185 7.55324C4.15263 7.5552 4.15432 7.55965 4.1563 7.56674C4.16022 7.58075 4.16666 7.61007 4.16666 7.65168H0.166656C0.166656 8.38998 0.39236 8.98661 0.589395 9.3719C0.690461 9.56952 0.793146 9.72967 0.876426 9.84755C0.918456 9.90704 0.956667 9.95735 0.988838 9.99792C1.00496 10.0183 1.01968 10.0363 1.03273 10.0519C1.03926 10.0598 1.04539 10.067 1.05107 10.0737C1.05392 10.077 1.05665 10.0802 1.05928 10.0833C1.06059 10.0848 1.06188 10.0863 1.06313 10.0877C1.06376 10.0884 1.06438 10.0891 1.065 10.0898C1.06531 10.0902 1.06576 10.0907 1.06591 10.0909C1.06637 10.0914 1.06682 10.0919 2.57345 8.77662ZM4.16666 7.65168V3.67441H0.166656V7.65168H4.16666ZM1.55555 3.67441V7.65168H5.55555V3.67441H1.55555ZM3.55555 9.65168H17.4444V5.65168H3.55555V9.65168ZM19.4444 7.65168V3.67441H15.4444V7.65168H19.4444ZM17.4444 1.67441H3.55555V5.67441H17.4444V1.67441Z" fill="#82DBF7" mask="url(#path-1-inside-1_2269_2113)"/>
</svg>