<svg xmlns="http://www.w3.org/2000/svg" width="18" height="18" viewBox="0 0 18 18" fill="none">
<path d="M11.6784 4.21551C11.2363 3.95071 10.9101 3.48708 10.9101 2.95812V2.88358C10.9101 2.11945 10.3121 1.5 9.57431 1.5L8.42569 1.5C7.68793 1.5 7.08986 2.11945 7.08986 2.88358V2.95812C7.08986 3.48708 6.76371 3.95071 6.32161 4.21551C5.88041 4.47977 5.33707 4.53584 4.89542 4.27237L4.82952 4.23305C4.18819 3.85046 3.36887 4.07785 2.99815 4.74131L2.43008 5.75797C2.05959 6.42102 2.27913 7.26964 2.92007 7.65199L2.98517 7.69083C3.42638 7.95404 3.6516 8.47264 3.6516 9C3.6516 9.52736 3.42639 10.046 2.98518 10.3092L2.92007 10.348C2.27913 10.7304 2.05959 11.579 2.43008 12.242L2.99816 13.2587C3.36887 13.9221 4.18818 14.1495 4.82951 13.7669L4.89541 13.7276C5.33706 13.4642 5.88041 13.5202 6.32161 13.7845C6.76371 14.0493 7.08986 14.5129 7.08986 15.0419V15.1164C7.08986 15.8805 7.68793 16.5 8.42569 16.5H9.57431C10.3121 16.5 10.9101 15.8805 10.9101 15.1164V15.0419C10.9101 14.5129 11.2363 14.0493 11.6784 13.7845C12.1196 13.5202 12.6629 13.4642 13.1046 13.7276L13.1705 13.7669C13.8118 14.1495 14.6311 13.9221 15.0018 13.2587L15.5699 12.242C15.9404 11.579 15.7209 10.7304 15.0799 10.348L15.0148 10.3092C14.5736 10.046 14.3484 9.52736 14.3484 9C14.3484 8.47264 14.5736 7.95404 15.0148 7.69083L15.0799 7.65199C15.7209 7.26964 15.9404 6.42102 15.5699 5.75797L15.0018 4.74131C14.6311 4.07785 13.8118 3.85046 13.1705 4.23305L13.1046 4.27237C12.6629 4.53584 12.1196 4.47977 11.6784 4.21551Z" stroke="#3E4859" stroke-width="2"/>
<path d="M11.25 9C11.25 10.2426 10.2426 11.25 9 11.25C7.75736 11.25 6.75 10.2426 6.75 9C6.75 7.75736 7.75736 6.75 9 6.75C10.2426 6.75 11.25 7.75736 11.25 9Z" stroke="#3E4859" stroke-width="2"/>
</svg>